<svg version="1.1" viewBox="0.0 0.0 576.2729658792651 100.0" fill="none" stroke="none" stroke-linecap="square" stroke-miterlimit="10" xmlns:xlink="http://www.w3.org/1999/xlink" xmlns="http://www.w3.org/2000/svg"><clipPath id="p.0"><path d="m0 0l576.27295 0l0 100.0l-576.27295 0l0 -100.0z" clip-rule="nonzero"/></clipPath><g clip-path="url(#p.0)"><path fill="#000000" fill-opacity="0.0" d="m0 0l576.27295 0l0 100.0l-576.27295 0z" fill-rule="evenodd"/><path fill="#000000" fill-opacity="0.0" d="m5.0446196 -18.03412l685.48035 0l0 71.338585l-685.48035 0z" fill-rule="evenodd"/><path fill="#666666" d="m75.85712 113.84589q-0.75 -3.1875 -1.0 -6.3125q-0.25 -3.125 -0.3125 -6.3125q-2.1875 3.4375 -5.21875 6.0625q-3.03125 2.625 -6.593746 4.34375q-3.5625 1.71875 -7.5625 2.59375q-4.0 0.875 -8.1875 0.875q-4.0625 0 -7.9375 -1.21875q-3.875 -1.21875 -6.875 -3.53125q-3.000002 -2.3125 -4.812502 -5.75q-1.8125 -3.4375 -1.8125 -7.875q0 -6.0625 2.9375 -10.03125q2.9375 -3.96875 7.593752 -6.3125q4.65625 -2.34375 10.40625 -3.28125q5.75 -0.9375 11.375 -1.0l16.687496 0l0 -9.875q-0.125 -4.562504 -1.875 -7.937504q-1.75 -3.375 -4.65625 -5.5625q-2.90625 -2.1875 -6.749996 -3.28125q-3.84375 -1.09375 -8.09375 -1.09375q-3.75 0 -7.65625 1.0q-3.90625 1.0 -7.09375 3.03125q-3.1875 2.03125 -5.3125 5.125q-2.125002 3.09375 -2.312502 7.343754l-3.375 -0.125q0.25 -4.937504 2.65625 -8.625004q2.406252 -3.6875 6.062502 -6.15625q3.65625 -2.46875 8.125 -3.71875q4.46875 -1.25 8.90625 -1.25q5.0 0 9.46875 1.34375q4.468746 1.34375 7.843746 4.0q3.375 2.65625 5.34375 6.6875q1.96875 4.03125 2.09375 9.343754l0 33.875q0.0625 3.4375 0.625 6.5625q0.5625 3.125 1.1875 6.5l0.0625 0.5625l-3.9375 0zm-28.874996 -2.0625q4.4375 0.0625 8.59375 -0.96875q4.15625 -1.03125 7.75 -3.09375q3.5937462 -2.0625 6.468746 -5.125q2.875 -3.0625 4.75 -7.0625l0 -16.0l-16.499996 0q-3.1875 0.0625 -6.59375 0.375q-3.40625 0.3125 -6.65625 1.0625q-3.25 0.75 -6.15625 2.0q-2.90625 1.25 -5.0625 3.1875q-2.156252 1.9375 -3.437502 4.59375q-1.28125 2.65625 -1.21875 6.21875q0 3.5625 1.625 6.34375q1.6250019 2.78125 4.218752 4.65625q2.59375 1.875 5.8125 2.84375q3.21875 0.96875 6.40625 0.96875zm137.4375 -49.250004q1.625 -3.75 4.125 -6.96875q2.5 -3.21875 5.71875 -5.5625q3.21875 -2.34375 7.09375 -3.6875q3.875 -1.34375 8.3125 -1.34375q5.8125 0 10.0625 1.875q4.25 1.875 7.0 5.21875q2.75 3.34375 4.09375 7.96875q1.34375 4.625004 1.40625 10.062504l0 43.75l-3.4375 0l0 -43.75q-0.0625 -4.75 -1.15625 -8.781254q-1.09375 -4.03125 -3.4375 -6.9375q-2.34375 -2.90625 -5.96875 -4.53125q-3.625 -1.625 -8.75 -1.5625q-4.5625 0.0625 -8.6875 1.8125q-4.125 1.75 -7.46875 4.6875q-3.34375 2.9375 -5.65625 6.875q-2.3125 3.9375038 -3.25 8.312504l0 43.875l-3.4375 0l0 -96.0l3.4375 0l0 44.6875zm178.0 52.562504q-6.9375 0 -12.59375 -2.78125q-5.65625 -2.78125 -9.6875 -7.46875q-4.03125 -4.6875 -6.28125 -10.75q-2.25 -6.0625 -2.3125 -12.625l0 -2.75q0.0625 -6.3125 2.125 -12.375q2.0625 -6.062504 5.875 -10.812504q3.8125 -4.75 9.25 -7.65625q5.4375 -2.90625 12.3125 -2.90625q6.125 0 11.0625 2.3125q4.9375 2.3125 8.40625 6.28125q3.46875 3.96875 5.34375 9.21875q1.875 5.250004 1.9375 11.062504l0 3.9375l-52.9375 0l0 0.9375l0 2.75q0.0625 5.8125 2.0625 11.28125q2.0 5.46875 5.59375 9.6875q3.59375 4.21875 8.625 6.75q5.03125 2.53125 11.21875 2.59375q6.3125 0.0625 11.59375 -2.1875q5.28125 -2.25 9.34375 -7.125l2.4375 1.6875q-4.3125 5.625 -10.34375 8.28125q-6.03125 2.65625 -13.03125 2.65625zm-1.3125 -66.75q-5.625 0 -10.125 2.15625q-4.5 2.15625 -7.78125 5.78125q-3.28125 3.625 -5.3125 8.343754q-2.03125 4.71875 -2.65625 9.78125l49.25 0l0 -0.8125q0 -5.0 -1.71875 -9.5625q-1.71875 -4.562504 -4.78125 -8.062504q-3.0625 -3.5 -7.375 -5.5625q-4.3125 -2.0625 -9.5 -2.0625zm127.375 62.125004l55.875 0l0 3.375l-60.875 0l0.0625 -2.75l51.5625 -61.437504l-49.375 0l0 -3.4375l54.375 0l-0.0625 3.0l-51.5625 61.250004z" fill-rule="nonzero"/><path fill="#000000" fill-opacity="0.0" d="m12.107612 33.209972l0.031496048 90.39371" fill-rule="evenodd"/><path stroke="#666666" stroke-width="4.0" stroke-linejoin="round" stroke-linecap="butt" d="m12.107612 33.209972l0.031496048 90.39371" fill-rule="evenodd"/></g></svg>