<svg version="1.1" viewBox="0.0 0.0 450.8923884514436 100.0" fill="none" stroke="none" stroke-linecap="square" stroke-miterlimit="10" xmlns:xlink="http://www.w3.org/1999/xlink" xmlns="http://www.w3.org/2000/svg"><clipPath id="p.0"><path d="m0 0l450.8924 0l0 100.0l-450.8924 0l0 -100.0z" clip-rule="nonzero"/></clipPath><g clip-path="url(#p.0)"><path fill="#000000" fill-opacity="0.0" d="m0 0l450.8924 0l0 100.0l-450.8924 0z" fill-rule="evenodd"/><path fill="#000000" fill-opacity="0.0" d="m6.03937 -24.745407l494.80316 0l0 82.519684l-494.80316 0z" fill-rule="evenodd"/><path fill="#666666" d="m53.336246 76.41459q-0.46875 -0.9375 -0.796875 -2.15625q-0.328125 -1.21875 -0.5625 -2.578125q-1.078125 1.171875 -2.484375 2.203125q-1.40625 1.03125 -3.125 1.8125q-1.703125 0.765625 -3.765625 1.203125q-2.0625 0.453125 -4.453125 0.453125q-3.890625 0 -7.156252 -1.125q-3.25 -1.125 -5.59375 -3.140625q-2.34375 -2.015625 -3.65625 -4.796875q-1.3125 -2.796875 -1.3125 -6.078125q0 -8.015625 5.96875 -12.390625q5.984377 -4.390625 17.843752 -4.390625l7.265625 0l0 -3.0q0 -3.65625 -2.390625 -5.78125q-2.390625 -2.140625 -6.890625 -2.140625q-3.984375 0 -5.8125 1.71875q-1.828125 1.703125 -1.828125 4.5625l-13.031252 0q0 -3.234375 1.421875 -6.140625q1.4375 -2.90625 4.171875 -5.109375q2.75 -2.203125 6.703127 -3.484375q3.96875 -1.296875 9.078125 -1.296875q4.59375 0 8.546875 1.125q3.96875 1.125 6.875 3.328125q2.90625 2.203125 4.546875 5.5625q1.6406212 3.34375 1.6406212 7.75l0 21.75q0 4.078125 0.515625 6.75q0.515625 2.671875 1.5 4.59375l0 0.796875l-13.218746 0zm-12.421875 -9.140625q1.96875 0 3.65625 -0.46875q1.6875 -0.46875 3.046875 -1.21875q1.359375 -0.75 2.34375 -1.703125q0.984375 -0.96875 1.546875 -1.953125l0 -8.71875l-6.65625 0q-3.046875 0 -5.203125 0.59375q-2.15625 0.578125 -3.515625 1.640625q-1.359375 1.046875 -2.015625 2.53125q-0.65625 1.46875 -0.65625 3.203125q0 2.625 1.84375 4.359375q1.859375 1.734375 5.609375 1.734375zm51.374996 -34.59375q2.53125 -3.703125 6.15625 -5.8125q3.640625 -2.109375 8.140625 -2.109375q3.984375 0 7.3125 1.203125q3.328125 1.1875 5.71875 3.71875q2.390625 2.53125 3.71875 6.5q1.34375 3.953125 1.34375 9.53125l0 30.703125l-13.03125 0l0 -30.796875q0 -2.71875 -0.6875 -4.6875q-0.671875 -1.96875 -1.9375 -3.1875q-1.265625 -1.21875 -3.046875 -1.796875q-1.78125 -0.59375 -4.03125 -0.59375q-3.28125 0 -5.703125 1.171875q-2.40625 1.171875 -3.953125 3.28125l0 36.609375l-13.03125 0l0 -72.0l13.03125 0l0 28.265625zm69.1875 44.671875q-5.859375 0 -10.640625 -1.921875q-4.78125 -1.921875 -8.203125 -5.21875q-3.421875 -3.3125 -5.28125 -7.78125q-1.84375 -4.484375 -1.84375 -9.59375l0 -1.875q0 -5.8125 1.828125 -10.609375q1.828125 -4.8125 5.109375 -8.28125q3.28125 -3.46875 7.78125 -5.390625q4.5 -1.921875 9.796875 -1.921875q5.484375 0 9.765625 1.8125q4.296875 1.796875 7.265625 5.078125q2.984375 3.28125 4.53125 7.90625q1.546875 4.609375 1.546875 10.1875l0 5.53125l-34.40625 0q0.375 2.578125 1.515625 4.71875q1.15625 2.125 2.9375 3.671875q1.78125 1.546875 4.078125 2.390625q2.296875 0.84375 5.015625 0.84375q1.921875 0 3.8125 -0.375q1.90625 -0.375 3.640625 -1.09375q1.734375 -0.734375 3.234375 -1.8125q1.5 -1.078125 2.625 -2.53125l6.515625 7.03125q-1.21875 1.734375 -3.171875 3.40625q-1.9375 1.65625 -4.59375 2.953125q-2.640625 1.28125 -5.875 2.078125q-3.234375 0.796875 -6.984375 0.796875zm-1.546875 -42.046875q-2.203125 0 -4.03125 0.78125q-1.828125 0.765625 -3.21875 2.21875q-1.375 1.453125 -2.3125 3.46875q-0.9375 2.015625 -1.40625 4.5l21.375 0l0 -1.03125q-0.09375 -2.0625 -0.796875 -3.890625q-0.703125 -1.828125 -2.015625 -3.15625q-1.3125 -1.34375 -3.21875 -2.109375q-1.890625 -0.78125 -4.375 -0.78125zm51.28125 30.65625l29.859375 0l0 10.453125l-47.671875 0l0 -8.0625l28.40625 -32.0625l-27.75 0l0 -10.59375l45.84375 0l0 7.828125l-28.6875 32.4375z" fill-rule="nonzero"/><path fill="#000000" fill-opacity="0.0" d="m5.7559056 -0.62992126l0.28346443 90.20473" fill-rule="evenodd"/><path stroke="#666666" stroke-width="4.0" stroke-linejoin="round" stroke-linecap="butt" d="m5.7559056 -0.62992126l0.28346443 90.20473" fill-rule="evenodd"/><path fill="#000000" fill-opacity="0.0" d="m566.3097 90.83465l-562.2992 -1.2598419" fill-rule="evenodd"/><path stroke="#666666" stroke-width="2.0" stroke-linejoin="round" stroke-linecap="butt" d="m566.3097 90.83465l-562.2992 -1.2598419" fill-rule="evenodd"/></g></svg>