<svg version="1.1" viewBox="0.0 0.0 450.8923884514436 100.0" fill="none" stroke="none" stroke-linecap="square" stroke-miterlimit="10" xmlns:xlink="http://www.w3.org/1999/xlink" xmlns="http://www.w3.org/2000/svg"><clipPath id="p.0"><path d="m0 0l450.8924 0l0 100.0l-450.8924 0l0 -100.0z" clip-rule="nonzero"/></clipPath><g clip-path="url(#p.0)"><path fill="#000000" fill-opacity="0.0" d="m0 0l450.8924 0l0 100.0l-450.8924 0z" fill-rule="evenodd"/><path fill="#000000" fill-opacity="0.0" d="m7.9658794 -30.223097l494.80316 0l0 82.519684l-494.80316 0z" fill-rule="evenodd"/><path fill="#666666" d="m63.325253 70.9369q-0.5625 -2.390625 -0.75 -4.734375q-0.1875 -2.34375 -0.234375 -4.734375q-1.640625 2.578125 -3.921875 4.546875q-2.265625 1.96875 -4.9375 3.265625q-2.671875 1.28125 -5.671875 1.9375q-3.0 0.65625 -6.140625 0.65625q-3.046875 0 -5.953125 -0.921875q-2.90625 -0.90625 -5.156248 -2.640625q-2.25 -1.734375 -3.609375 -4.3125q-1.359375 -2.578125 -1.359375 -5.90625q0 -4.546875 2.203125 -7.515625q2.203125 -2.984375 5.687498 -4.734375q3.5 -1.765625 7.8125 -2.46875q4.3125 -0.703125 8.53125 -0.75l12.515625 0l0 -7.40625q-0.09375 -3.421873 -1.40625 -5.953123q-1.3125 -2.53125 -3.5 -4.171875q-2.171875 -1.640625 -5.0625 -2.453125q-2.875 -0.828125 -6.0625 -0.828125q-2.8125 0 -5.75 0.75q-2.921875 0.75 -5.3125 2.28125q-2.390625 1.515625 -3.984373 3.84375q-1.59375 2.3125 -1.734375 5.499998l-2.53125 -0.09375q0.1875 -3.703123 1.984375 -6.468748q1.8125 -2.765625 4.546873 -4.609375q2.75 -1.859375 6.09375 -2.796875q3.359375 -0.9375 6.6875 -0.9375q3.75 0 7.09375 1.015625q3.359375 1.0 5.890625 3.0q2.53125 1.984375 4.0 5.015625q1.4843788 3.015625 1.5781288 6.999998l0 25.40625q0.046875 2.578125 0.46875 4.921875q0.421875 2.34375 0.890625 4.875l0.046875 0.421875l-2.9531288 0zm-21.65625 -1.546875q3.328125 0.046875 6.4375 -0.71875q3.125 -0.78125 5.8125 -2.328125q2.703125 -1.546875 4.859375 -3.84375q2.15625 -2.296875 3.5625 -5.296875l0 -12.0l-12.375 0q-2.390625 0.046875 -4.953125 0.28125q-2.546875 0.234375 -4.984375 0.796875q-2.4375 0.5625 -4.625 1.5q-2.171875 0.9375 -3.796873 2.390625q-1.609375 1.453125 -2.578125 3.453125q-0.953125 1.984375 -0.90625 4.65625q0 2.671875 1.21875 4.765625q1.21875 2.078125 3.156248 3.484375q1.953125 1.40625 4.359375 2.140625q2.421875 0.71875 4.8125 0.71875zm103.078125 -36.9375q1.21875 -2.812498 3.09375 -5.218748q1.875 -2.421875 4.28125 -4.171875q2.421875 -1.765625 5.328125 -2.765625q2.90625 -1.015625 6.234375 -1.015625q4.359375 0 7.546875 1.40625q3.1875 1.40625 5.25 3.921875q2.0625 2.5 3.0625 5.96875q1.015625 3.468748 1.0625 7.546873l0 32.8125l-2.578125 0l0 -32.8125q-0.046875 -3.5625 -0.875 -6.578123q-0.8125 -3.03125 -2.578125 -5.203125q-1.75 -2.1875 -4.46875 -3.40625q-2.71875 -1.21875 -6.5625 -1.171875q-3.421875 0.046875 -6.515625 1.359375q-3.09375 1.3125 -5.609375 3.515625q-2.5 2.203125 -4.234375 5.15625q-1.734375 2.953123 -2.4375 6.234373l0 32.90625l-2.578125 0l0 -72.0l2.578125 0l0 33.515625zm133.5 39.421875q-5.203125 0 -9.453125 -2.078125q-4.234375 -2.09375 -7.265625 -5.609375q-3.015625 -3.515625 -4.703125 -8.0625q-1.6875 -4.546875 -1.734375 -9.46875l0 -2.0625q0.046875 -4.734375 1.59375 -9.28125q1.546875 -4.546873 4.40625 -8.109373q2.859375 -3.5625 6.9375 -5.734375q4.078125 -2.1875 9.234375 -2.1875q4.59375 0 8.296875 1.734375q3.703125 1.734375 6.296875 4.71875q2.609375 2.96875 4.015625 6.906248q1.40625 3.9375 1.453125 8.296875l0 2.953125l-39.703125 0l0 0.703125l0 2.0625q0.046875 4.359375 1.546875 8.46875q1.5 4.09375 4.1875 7.265625q2.703125 3.15625 6.46875 5.0625q3.78125 1.890625 8.421875 1.9375q4.734375 0.046875 8.6875 -1.640625q3.96875 -1.6875 7.015625 -5.34375l1.828125 1.265625q-3.234375 4.21875 -7.765625 6.21875q-4.515625 1.984375 -9.765625 1.984375zm-0.984375 -50.0625q-4.21875 0 -7.59375 1.625q-3.375 1.609375 -5.84375 4.328125q-2.453125 2.71875 -3.984375 6.265623q-1.515625 3.53125 -1.984375 7.328125l36.9375 0l0 -0.609375q0 -3.75 -1.296875 -7.171875q-1.28125 -3.421873 -3.578125 -6.046873q-2.296875 -2.625 -5.53125 -4.171875q-3.234375 -1.546875 -7.125 -1.546875zm95.53125 46.59375l41.90625 0l0 2.53125l-45.65625 0l0.046875 -2.0625l38.671875 -46.078125l-37.03125 0l0 -2.578125l40.78125 0l-0.046875 2.25l-38.671875 45.9375z" fill-rule="nonzero"/><path fill="#000000" fill-opacity="0.0" d="m5.7559056 -0.62992126l0.28346443 90.20473" fill-rule="evenodd"/><path stroke="#666666" stroke-width="4.0" stroke-linejoin="round" stroke-linecap="butt" d="m5.7559056 -0.62992126l0.28346443 90.20473" fill-rule="evenodd"/><path fill="#000000" fill-opacity="0.0" d="m566.3097 90.83465l-562.2992 -1.2598419" fill-rule="evenodd"/><path stroke="#666666" stroke-width="2.0" stroke-linejoin="round" stroke-linecap="butt" d="m566.3097 90.83465l-562.2992 -1.2598419" fill-rule="evenodd"/></g></svg>