<svg version="1.1" viewBox="0.0 0.0 374.95538057742783 346.1128608923884" fill="none" stroke="none" stroke-linecap="square" stroke-miterlimit="10" xmlns:xlink="http://www.w3.org/1999/xlink" xmlns="http://www.w3.org/2000/svg"><clipPath id="p.0"><path d="m0 0l374.95538 0l0 346.11285l-374.95538 0l0 -346.11285z" clip-rule="nonzero"/></clipPath><g clip-path="url(#p.0)"><path fill="#000000" fill-opacity="0.0" d="m0 0l374.95538 0l0 346.11285l-374.95538 0z" fill-rule="evenodd"/><path fill="#1f2421" d="m3.7165353 174.06299l0 0c0 -96.77594 80.71565 -175.22835 180.28346 -175.22835l0 0c47.814148 0 93.66995 18.461504 127.479675 51.323196c33.809692 32.86169 52.803802 77.4317 52.803802 123.90515l0 0c0 96.77594 -80.71567 175.22836 -180.28348 175.22836l0 0c-99.56781 0 -180.28346 -78.45242 -180.28346 -175.22836z" fill-rule="evenodd"/><path fill="#000000" fill-opacity="0.0" d="m238.12335 198.95538l-0.56692505 120.25195" fill-rule="evenodd"/><path stroke="#ffffff" stroke-width="24.0" stroke-linejoin="round" stroke-linecap="butt" d="m238.12335 198.95538l-0.56692505 120.25195" fill-rule="evenodd"/><path fill="#000000" fill-opacity="0.0" d="m282.4357 -5.648294l-0.50393677 357.3543" fill-rule="evenodd"/><path stroke="#ffffff" stroke-width="24.0" stroke-linejoin="round" stroke-linecap="butt" d="m282.4357 -5.648294l-0.50393677 357.3543" fill-rule="evenodd"/><path fill="#000000" fill-opacity="0.0" d="m49.811024 -7.703412l0.062992096 185.29134" fill-rule="evenodd"/><path stroke="#ffffff" stroke-width="24.0" stroke-linejoin="round" stroke-linecap="butt" d="m49.811024 -7.703412l0.062992096 185.29134" fill-rule="evenodd"/><path fill="#000000" fill-opacity="0.0" d="m247.97638 307.4672l-254.14174 -0.3779602" fill-rule="evenodd"/><path stroke="#ffffff" stroke-width="24.0" stroke-linejoin="round" stroke-linecap="butt" d="m247.97638 307.4672l-254.14174 -0.3779602" fill-rule="evenodd"/><path fill="#000000" fill-opacity="0.0" d="m103.52493 -8.286089l0.81890106 273.54333" fill-rule="evenodd"/><path stroke="#ffffff" stroke-width="24.0" stroke-linejoin="round" stroke-linecap="butt" d="m103.52493 -8.286089l0.81890106 273.54333" fill-rule="evenodd"/><path fill="#000000" fill-opacity="0.0" d="m208.14174 258.8504l-74.74016 -0.5984192" fill-rule="evenodd"/><path stroke="#ffffff" stroke-width="24.0" stroke-linejoin="round" stroke-linecap="butt" d="m208.14174 258.8504l-74.74016 -0.5984192" fill-rule="evenodd"/><path fill="#000000" fill-opacity="0.0" d="m207.25197 205.41208l-74.74016 -0.59843445" fill-rule="evenodd"/><path stroke="#ffffff" stroke-width="24.0" stroke-linejoin="round" stroke-linecap="butt" d="m207.25197 205.41208l-74.74016 -0.59843445" fill-rule="evenodd"/><path fill="#000000" fill-opacity="0.0" d="m145.42258 265.25986l-0.94488525 -67.55907" fill-rule="evenodd"/><path stroke="#ffffff" stroke-width="24.0" stroke-linejoin="round" stroke-linecap="butt" d="m145.42258 265.25986l-0.94488525 -67.55907" fill-rule="evenodd"/><path fill="#000000" fill-opacity="0.0" d="m196.67455 265.25986l-0.94488525 -67.55907" fill-rule="evenodd"/><path stroke="#ffffff" stroke-width="24.0" stroke-linejoin="round" stroke-linecap="butt" d="m196.67455 265.25986l-0.94488525 -67.55907" fill-rule="evenodd"/><path fill="#000000" fill-opacity="0.0" d="m166.52756 258.8491l-74.74016 -0.5984192" fill-rule="evenodd"/><path stroke="#ffffff" stroke-width="24.0" stroke-linejoin="round" stroke-linecap="butt" d="m166.52756 258.8491l-74.74016 -0.5984192" fill-rule="evenodd"/><path fill="#000000" fill-opacity="0.0" d="m198.01968 -23.784777l-0.50393677 201.38582" fill-rule="evenodd"/><path stroke="#ffffff" stroke-width="24.0" stroke-linejoin="round" stroke-linecap="butt" d="m198.01968 -23.784777l-0.50393677 201.38582" fill-rule="evenodd"/><path fill="#000000" fill-opacity="0.0" d="m197.53018 165.31758l-152.22047 0.75590515" fill-rule="evenodd"/><path stroke="#ffffff" stroke-width="24.0" stroke-linejoin="round" stroke-linecap="butt" d="m197.53018 165.31758l-152.22047 0.75590515" fill-rule="evenodd"/><path fill="#000000" fill-opacity="0.0" d="m157.98163 80.879265l0 22.141731" fill-rule="evenodd"/><path stroke="#ffffff" stroke-width="24.0" stroke-linejoin="round" stroke-linecap="butt" d="m157.98163 80.879265l0 22.141731" fill-rule="evenodd"/></g></svg>