<svg version="1.1" viewBox="0.0 0.0 103.62204724409449 100.2782152230971" fill="none" stroke="none" stroke-linecap="square" stroke-miterlimit="10" xmlns:xlink="http://www.w3.org/1999/xlink" xmlns="http://www.w3.org/2000/svg"><clipPath id="p.0"><path d="m0 0l103.62205 0l0 100.27821l-103.62205 0l0 -100.27821z" clip-rule="nonzero"/></clipPath><g clip-path="url(#p.0)"><path fill="#000000" fill-opacity="0.0" d="m0 0l103.62205 0l0 100.27821l-103.62205 0z" fill-rule="evenodd"/><path fill="#1f2421" d="m0 50.139107l0 0c0 -27.692513 23.196585 -50.14173 51.811024 -50.14173l0 0c13.741138 0 26.919476 5.2827744 36.63593 14.686173c9.716446 9.403399 15.175095 22.157146 15.175095 35.45556l0 0c0 27.692513 -23.196587 50.14173 -51.811024 50.14173l0 0c-28.614439 0 -51.811024 -22.449219 -51.811024 -50.14173z" fill-rule="evenodd"/><path fill="#000000" fill-opacity="0.0" d="m51.811024 -0.002624672l0 100.28346" fill-rule="evenodd"/><path stroke="#ffffff" stroke-width="8.0" stroke-linejoin="round" stroke-linecap="butt" d="m51.811024 -0.002624672l0 100.28346" fill-rule="evenodd"/><path fill="#000000" fill-opacity="0.0" d="m54.041996 -2.976378l-55.086617 88.220474" fill-rule="evenodd"/><path stroke="#ffffff" stroke-width="8.0" stroke-linejoin="round" stroke-linecap="butt" d="m54.041996 -2.976378l-55.086617 88.220474" fill-rule="evenodd"/><path fill="#000000" fill-opacity="0.0" d="m85.30446 -0.002624672l0 100.28346" fill-rule="evenodd"/><path stroke="#ffffff" stroke-width="8.0" stroke-linejoin="round" stroke-linecap="butt" d="m85.30446 -0.002624672l0 100.28346" fill-rule="evenodd"/><path fill="#000000" fill-opacity="0.0" d="m85.39895 50.139107l-64.566925 0.28346634" fill-rule="evenodd"/><path stroke="#ffffff" stroke-width="8.0" stroke-linejoin="round" stroke-linecap="butt" d="m85.39895 50.139107l-64.566925 0.28346634" fill-rule="evenodd"/></g></svg>