<svg width="24" height="24" viewBox="0 0 24 24" fill="none" xmlns="http://www.w3.org/2000/svg">
<g clip-path="url(#clip0)">
<rect x="1" y="4.5" width="19" height="1.5" fill="#499FB9"/>
<circle cx="3.75" cy="2.75" r="0.75" fill="#499FB9"/>
<circle cx="6.75" cy="2.75" r="0.75" fill="#499FB9"/>
<circle cx="9.75" cy="2.75" r="0.75" fill="#499FB9"/>
<mask id="path-5-inside-1" fill="white">
<rect width="21" height="18" rx="1"/>
</mask>
<rect width="21" height="18" rx="1" stroke="#499FB9" stroke-width="3" mask="url(#path-5-inside-1)"/>
<mask id="path-6-outside-2" maskUnits="userSpaceOnUse" x="15" y="11" width="10" height="14" fill="black">
<rect fill="white" x="15" y="11" width="10" height="14"/>
<path fill-rule="evenodd" clip-rule="evenodd" d="M22.4003 16.7999C22.7769 16.2985 23 15.6753 23 15C23 13.3431 21.6569 12 20 12C18.3431 12 17 13.3431 17 15C17 15.6753 17.2231 16.2985 17.5997 16.7999C16.6283 17.5297 16 18.6915 16 20V23.4783C16 23.7664 16.2336 24 16.5217 24H23.4783C23.7664 24 24 23.7664 24 23.4783V20C24 18.6915 23.3717 17.5297 22.4003 16.7999Z"/>
</mask>
<path fill-rule="evenodd" clip-rule="evenodd" d="M22.4003 16.7999C22.7769 16.2985 23 15.6753 23 15C23 13.3431 21.6569 12 20 12C18.3431 12 17 13.3431 17 15C17 15.6753 17.2231 16.2985 17.5997 16.7999C16.6283 17.5297 16 18.6915 16 20V23.4783C16 23.7664 16.2336 24 16.5217 24H23.4783C23.7664 24 24 23.7664 24 23.4783V20C24 18.6915 23.3717 17.5297 22.4003 16.7999Z" fill="#499FB9"/>
<path d="M22.4003 16.7999L22.0005 16.4996L21.7002 16.8994L22.1 17.1997L22.4003 16.7999ZM17.5997 16.7999L17.9 17.1997L18.2998 16.8994L17.9995 16.4996L17.5997 16.7999ZM22.5 15C22.5 15.5633 22.3143 16.0819 22.0005 16.4996L22.8001 17.1002C23.2394 16.5152 23.5 15.7873 23.5 15H22.5ZM20 12.5C21.3807 12.5 22.5 13.6193 22.5 15H23.5C23.5 13.067 21.933 11.5 20 11.5V12.5ZM17.5 15C17.5 13.6193 18.6193 12.5 20 12.5V11.5C18.067 11.5 16.5 13.067 16.5 15H17.5ZM17.9995 16.4996C17.6857 16.0819 17.5 15.5633 17.5 15H16.5C16.5 15.7873 16.7606 16.5152 17.1999 17.1002L17.9995 16.4996ZM16.5 20C16.5 18.8554 17.0489 17.8391 17.9 17.1997L17.2994 16.4002C16.2077 17.2203 15.5 18.5276 15.5 20H16.5ZM16.5 23.4783V20H15.5V23.4783H16.5ZM16.5217 23.5C16.5097 23.5 16.5 23.4903 16.5 23.4783H15.5C15.5 24.0426 15.9574 24.5 16.5217 24.5V23.5ZM23.4783 23.5H16.5217V24.5H23.4783V23.5ZM23.5 23.4783C23.5 23.4903 23.4903 23.5 23.4783 23.5V24.5C24.0426 24.5 24.5 24.0426 24.5 23.4783H23.5ZM23.5 20V23.4783H24.5V20H23.5ZM22.1 17.1997C22.9511 17.8391 23.5 18.8554 23.5 20H24.5C24.5 18.5276 23.7923 17.2203 22.7006 16.4002L22.1 17.1997Z" fill="white" mask="url(#path-6-outside-2)"/>
<path d="M5.54894 8.92705C5.8483 8.00574 7.1517 8.00574 7.45106 8.92705L7.51031 9.10942C7.64419 9.52145 8.02814 9.80041 8.46137 9.80041L8.65313 9.80041C9.62185 9.80041 10.0246 11.04 9.24091 11.6094L9.08578 11.7221C8.73529 11.9768 8.58863 12.4281 8.72251 12.8402L8.78176 13.0225C9.08111 13.9439 8.02663 14.71 7.24292 14.1406L7.08779 14.0279C6.7373 13.7732 6.2627 13.7732 5.91221 14.0279L5.75708 14.1406C4.97337 14.71 3.91889 13.9439 4.21824 13.0225L4.27749 12.8402C4.41137 12.4281 4.26471 11.9768 3.91422 11.7221L3.75909 11.6094C2.97537 11.04 3.37815 9.80041 4.34687 9.80041L4.53863 9.80041C4.97186 9.80041 5.35581 9.52145 5.48969 9.10942L5.54894 8.92705Z" fill="#499FB9"/>
<path d="M15.4551 6.67705C15.6266 6.14919 16.3734 6.14919 16.5449 6.67705V6.67705C16.6216 6.91312 16.8416 7.07295 17.0898 7.07295V7.07295C17.6448 7.07295 17.8756 7.78319 17.4266 8.10942V8.10942C17.2258 8.25532 17.1417 8.51393 17.2184 8.75V8.75C17.39 9.27786 16.7858 9.71681 16.3368 9.39058V9.39058C16.136 9.24468 15.864 9.24468 15.6632 9.39058V9.39058C15.2142 9.71681 14.61 9.27786 14.7816 8.75V8.75C14.8583 8.51393 14.7742 8.25532 14.5734 8.10942V8.10942C14.1244 7.78319 14.3552 7.07295 14.9102 7.07295V7.07295C15.1584 7.07295 15.3784 6.91312 15.4551 6.67705V6.67705Z" fill="#499FB9"/>
<path d="M12.5835 12.3106C12.9071 11.9802 13.4645 12.2569 13.3969 12.7145V12.7145C13.3667 12.9191 13.4717 13.1199 13.657 13.2119V13.2119C14.0712 13.4175 13.9803 14.0332 13.5243 14.1103V14.1103C13.3203 14.1448 13.1618 14.3067 13.1315 14.5113V14.5113C13.0639 14.9689 12.4503 15.0726 12.2361 14.6627V14.6627C12.1402 14.4794 11.9373 14.3787 11.7333 14.4131V14.4131C11.2773 14.4903 10.989 13.9387 11.3126 13.6083V13.6083C11.4573 13.4605 11.4904 13.2363 11.3946 13.053V13.053C11.1804 12.6431 11.6158 12.1985 12.0301 12.4042V12.4042C12.2153 12.4962 12.4388 12.4584 12.5835 12.3106V12.3106Z" fill="#499FB9"/>
<path d="M6.63672 21.8159C6.60905 22.1984 6.46745 22.4995 6.21191 22.7192C5.95801 22.939 5.62272 23.0488 5.20605 23.0488C4.75033 23.0488 4.39144 22.8958 4.12939 22.5898C3.86898 22.2822 3.73877 21.8607 3.73877 21.3252V21.1079C3.73877 20.7661 3.79899 20.465 3.91943 20.2046C4.03988 19.9442 4.21159 19.7448 4.43457 19.6064C4.65918 19.4665 4.9196 19.3965 5.21582 19.3965C5.62598 19.3965 5.95638 19.5063 6.20703 19.7261C6.45768 19.9458 6.60254 20.2542 6.6416 20.6514H5.90918C5.89128 20.4219 5.82699 20.2559 5.71631 20.1533C5.60726 20.0492 5.44043 19.9971 5.21582 19.9971C4.97168 19.9971 4.78857 20.085 4.6665 20.2607C4.54606 20.4349 4.48421 20.7059 4.48096 21.0737V21.3423C4.48096 21.7264 4.53874 22.0072 4.6543 22.1846C4.77148 22.362 4.9554 22.4507 5.20605 22.4507C5.43229 22.4507 5.60075 22.3994 5.71143 22.2969C5.82373 22.1927 5.88802 22.0324 5.9043 21.8159H6.63672ZM8.07471 19.4453L8.98779 22.0234L9.896 19.4453H10.8579V23H10.123V22.0283L10.1963 20.3511L9.23682 23H8.73389L7.77686 20.3535L7.8501 22.0283V23H7.11768V19.4453H8.07471ZM14.188 19.4453V21.7866C14.188 22.1756 14.0659 22.4832 13.8218 22.7095C13.5793 22.9357 13.2472 23.0488 12.8257 23.0488C12.4106 23.0488 12.0811 22.939 11.8369 22.7192C11.5928 22.4995 11.4683 22.1976 11.4634 21.8135V19.4453H12.1958V21.7915C12.1958 22.0243 12.2511 22.1943 12.3618 22.3018C12.4741 22.4076 12.6287 22.4604 12.8257 22.4604C13.2375 22.4604 13.4466 22.244 13.4531 21.811V19.4453H14.188Z" fill="#499FB9"/>
</g>
<defs>
<clipPath id="clip0">
<rect width="24" height="24" fill="white"/>
</clipPath>
</defs>
</svg>
