<svg width="24" height="24" viewBox="0 0 24 24" fill="none" xmlns="http://www.w3.org/2000/svg">
<g clip-path="url(#clip0)">
<path d="M0.0621291 9.57916C-0.102942 9.95906 0.071212 10.4008 0.451113 10.5659C0.831013 10.731 1.2728 10.5568 1.43787 10.1769L0.0621291 9.57916ZM20.9379 10.1769C21.1029 9.79704 20.9288 9.35525 20.5489 9.19018C20.169 9.02511 19.7272 9.19926 19.5621 9.57916L20.9379 10.1769ZM1.43787 10.1769C1.88905 9.13858 2.29533 8.01426 2.85326 7.0971C3.41568 6.17255 3.96256 5.75 4.56522 5.75V4.25C3.13309 4.25 2.19628 5.29087 1.57174 6.31753C0.94271 7.35159 0.458779 8.6663 0.0621291 9.57916L1.43787 10.1769ZM4.56522 5.75C5.16787 5.75 5.71476 6.17255 6.27718 7.0971C6.8351 8.01426 7.24139 9.13858 7.69256 10.1769L9.06831 9.57916C8.67166 8.6663 8.18772 7.35159 7.55869 6.31753C6.93416 5.29087 5.99734 4.25 4.56522 4.25V5.75ZM7.69256 10.1769C9.23502 13.7268 11.6645 15.75 14.3152 15.75C16.9659 15.75 19.3954 13.7268 20.9379 10.1769L19.5621 9.57916C18.1372 12.8586 16.1156 14.25 14.3152 14.25C12.5149 14.25 10.4932 12.8586 9.06831 9.57916L7.69256 10.1769Z" fill="#499FB9"/>
<mask id="path-2-inside-1" fill="white">
<rect y="1" width="21" height="18" rx="1"/>
</mask>
<rect y="1" width="21" height="18" rx="1" stroke="#499FB9" stroke-width="3" mask="url(#path-2-inside-1)"/>
<circle cx="11.5" cy="6.5" r="1.5" fill="#499FB9"/>
<rect x="22.2731" width="2" height="11" rx="0.25" transform="rotate(45 22.2731 0)" fill="#499FB9"/>
<path d="M13.9869 8.44466C14.0627 8.29109 14.2669 8.25737 14.3879 8.37844L15.3131 9.30355C15.4329 9.42338 15.4013 9.62519 15.2506 9.70267L13.4004 10.6538C13.1861 10.764 12.9553 10.5371 13.0619 10.321L13.9869 8.44466Z" fill="#499FB9"/>
</g>
<defs>
<clipPath id="clip0">
<rect width="24" height="24" fill="white"/>
</clipPath>
</defs>
</svg>
