<svg width="24" height="24" viewBox="0 0 24 24" fill="none" xmlns="http://www.w3.org/2000/svg">
<rect x="1" y="5" width="22" height="1.5" fill="#499FB9"/>
<circle cx="3.75" cy="3.25" r="0.75" fill="#499FB9"/>
<circle cx="6.75" cy="3.25" r="0.75" fill="#499FB9"/>
<circle cx="9.75" cy="3.25" r="0.75" fill="#499FB9"/>
<mask id="path-5-inside-1" fill="white">
<rect width="24" height="19" rx="1"/>
</mask>
<rect width="24" height="19" rx="1" stroke="#499FB9" stroke-width="3" mask="url(#path-5-inside-1)"/>
<rect x="12.4202" y="8" width="1.5" height="8" rx="0.75" transform="rotate(20 12.4202 8)" fill="#499FB9"/>
<path fill-rule="evenodd" clip-rule="evenodd" d="M4.53033 11.2981C4.23744 11.591 4.23744 12.0659 4.53033 12.3588L6.2981 14.1265C6.59099 14.4194 7.06586 14.4194 7.35876 14.1265C7.65165 13.8336 7.65165 13.3588 7.35876 13.0659L6.12132 11.8284L7.35876 10.591C7.65165 10.2981 7.65165 9.82323 7.35876 9.53033C7.06586 9.23744 6.59099 9.23744 6.2981 9.53033L4.53033 11.2981Z" fill="#499FB9"/>
<path fill-rule="evenodd" clip-rule="evenodd" d="M19.1265 12.3588C19.4194 12.0659 19.4194 11.591 19.1265 11.2981L17.3588 9.53033C17.0659 9.23744 16.591 9.23744 16.2981 9.53033C16.0052 9.82323 16.0052 10.2981 16.2981 10.591L17.5355 11.8284L16.2981 13.0659C16.0052 13.3588 16.0052 13.8336 16.2981 14.1265C16.591 14.4194 17.0659 14.4194 17.3588 14.1265L19.1265 12.3588Z" fill="#499FB9"/>
</svg>
