<svg width="26" height="23" viewBox="0 0 26 23" fill="none" xmlns="http://www.w3.org/2000/svg">
<rect x="19" y="17.0254" width="1.5" height="7.19291" rx="0.75" transform="rotate(-43.1254 19 17.0254)" fill="#499FB9"/>
<path d="M0.0621291 8.57916C-0.102942 8.95906 0.071212 9.40085 0.451113 9.56592C0.831013 9.73099 1.2728 9.55684 1.43787 9.17694L0.0621291 8.57916ZM20.9379 9.17694C21.1029 8.79704 20.9288 8.35525 20.5489 8.19018C20.169 8.02511 19.7272 8.19926 19.5621 8.57916L20.9379 9.17694ZM1.43787 9.17694C1.88905 8.13858 2.29533 7.01426 2.85326 6.0971C3.41568 5.17255 3.96256 4.75 4.56522 4.75V3.25C3.13309 3.25 2.19628 4.29087 1.57174 5.31753C0.94271 6.35159 0.458779 7.6663 0.0621291 8.57916L1.43787 9.17694ZM4.56522 4.75C5.16787 4.75 5.71476 5.17255 6.27718 6.0971C6.8351 7.01426 7.24139 8.13858 7.69256 9.17694L9.06831 8.57916C8.67166 7.6663 8.18772 6.35159 7.55869 5.31753C6.93416 4.29087 5.99734 3.25 4.56522 3.25V4.75ZM7.69256 9.17694C9.23502 12.7268 11.6645 14.75 14.3152 14.75C16.9659 14.75 19.3954 12.7268 20.9379 9.17694L19.5621 8.57916C18.1372 11.8586 16.1156 13.25 14.3152 13.25C12.5149 13.25 10.4932 11.8586 9.06831 8.57916L7.69256 9.17694Z" fill="#499FB9"/>
<mask id="path-3-inside-1" fill="white">
<rect width="21" height="18" rx="1"/>
</mask>
<rect width="21" height="18" rx="1" stroke="#499FB9" stroke-width="3" mask="url(#path-3-inside-1)"/>
<circle cx="11.5" cy="5.5" r="1.5" fill="#499FB9"/>
<circle cx="17.5" cy="13.5" r="4.75" fill="white" stroke="#499FB9" stroke-width="1.5"/>
<path d="M13 11C13.4706 12 14.9765 14 17.2353 14C19.4941 14 20.6863 12 21 11" stroke="#499FB9" stroke-width="1.5"/>
</svg>
