<svg width="24" height="23" viewBox="0 0 24 23" fill="none" xmlns="http://www.w3.org/2000/svg">
<line x1="9.77792" y1="7.69292" x2="7.31911" y2="10.33" stroke="#499FB9" stroke-width="1.5"/>
<line x1="17.4783" y1="14.108" x2="15.3162" y2="9.30802" stroke="#499FB9" stroke-width="1.5"/>
<mask id="path-3-outside-1" maskUnits="userSpaceOnUse" x="1.9231" y="10.5983" width="7" height="9" fill="black">
<rect fill="white" x="1.9231" y="10.5983" width="7" height="9"/>
<path fill-rule="evenodd" clip-rule="evenodd" d="M6.66674 14.4264C6.88571 14.1311 7.01538 13.7646 7.01538 13.3675C7.01538 12.3904 6.23016 11.5983 5.26154 11.5983C4.29291 11.5983 3.50769 12.3904 3.50769 13.3675C3.50769 13.7646 3.63737 14.1312 3.85634 14.4264C3.28957 14.8531 2.9231 15.5316 2.9231 16.2957V18.3675C2.9231 18.5375 3.06085 18.6752 3.23079 18.6752H7.29233C7.46226 18.6752 7.60002 18.5375 7.60002 18.3675V16.2957C7.60002 15.5316 7.23353 14.8531 6.66674 14.4264Z"/>
</mask>
<path fill-rule="evenodd" clip-rule="evenodd" d="M6.66674 14.4264C6.88571 14.1311 7.01538 13.7646 7.01538 13.3675C7.01538 12.3904 6.23016 11.5983 5.26154 11.5983C4.29291 11.5983 3.50769 12.3904 3.50769 13.3675C3.50769 13.7646 3.63737 14.1312 3.85634 14.4264C3.28957 14.8531 2.9231 15.5316 2.9231 16.2957V18.3675C2.9231 18.5375 3.06085 18.6752 3.23079 18.6752H7.29233C7.46226 18.6752 7.60002 18.5375 7.60002 18.3675V16.2957C7.60002 15.5316 7.23353 14.8531 6.66674 14.4264Z" fill="#499FB9"/>
<path d="M6.66674 14.4264L6.26514 14.1285L5.96943 14.5272L6.36601 14.8258L6.66674 14.4264ZM3.85634 14.4264L4.15709 14.8258L4.55366 14.5273L4.25794 14.1285L3.85634 14.4264ZM6.51538 13.3675C6.51538 13.6541 6.42218 13.9168 6.26514 14.1285L7.06834 14.7242C7.34923 14.3455 7.51538 13.8751 7.51538 13.3675H6.51538ZM5.26154 12.0983C5.94991 12.0983 6.51538 12.6624 6.51538 13.3675H7.51538C7.51538 12.1184 6.51041 11.0983 5.26154 11.0983V12.0983ZM4.00769 13.3675C4.00769 12.6624 4.57316 12.0983 5.26154 12.0983V11.0983C4.01266 11.0983 3.00769 12.1184 3.00769 13.3675H4.00769ZM4.25794 14.1285C4.10089 13.9168 4.00769 13.6541 4.00769 13.3675H3.00769C3.00769 13.8752 3.17385 14.3455 3.45475 14.7243L4.25794 14.1285ZM3.4231 16.2957C3.4231 15.6953 3.71038 15.1622 4.15709 14.8258L3.5556 14.027C2.86877 14.5441 2.4231 15.3679 2.4231 16.2957H3.4231ZM3.4231 18.3675V16.2957H2.4231V18.3675H3.4231ZM3.23079 18.1752C3.337 18.1752 3.4231 18.2613 3.4231 18.3675H2.4231C2.4231 18.8136 2.78471 19.1752 3.23079 19.1752V18.1752ZM7.29233 18.1752H3.23079V19.1752H7.29233V18.1752ZM7.10002 18.3675C7.10002 18.2613 7.18612 18.1752 7.29233 18.1752V19.1752C7.73841 19.1752 8.10002 18.8136 8.10002 18.3675H7.10002ZM7.10002 16.2957V18.3675H8.10002V16.2957H7.10002ZM6.36601 14.8258C6.81273 15.1622 7.10002 15.6953 7.10002 16.2957H8.10002C8.10002 15.3679 7.65433 14.544 6.96748 14.0269L6.36601 14.8258Z" fill="white" mask="url(#path-3-outside-1)"/>
<path fill-rule="evenodd" clip-rule="evenodd" d="M14.8513 5.18705C15.0703 4.89181 15.2 4.52528 15.2 4.12819C15.2 3.15107 14.4147 2.35896 13.4461 2.35896C12.4775 2.35896 11.6923 3.15107 11.6923 4.12819C11.6923 4.52529 11.8219 4.89183 12.0409 5.18707C11.4741 5.6138 11.1077 6.2923 11.1077 7.05641V9.1282C11.1077 9.29813 11.2454 9.43589 11.4154 9.43589H15.4769C15.6468 9.43589 15.7846 9.29813 15.7846 9.1282V7.05641C15.7846 6.29229 15.4181 5.61377 14.8513 5.18705Z" fill="#499FB9"/>
<mask id="path-6-outside-2" maskUnits="userSpaceOnUse" x="15.9539" y="14.3333" width="7" height="9" fill="black">
<rect fill="white" x="15.9539" y="14.3333" width="7" height="9"/>
<path fill-rule="evenodd" clip-rule="evenodd" d="M20.6975 18.1614C20.9165 17.8662 21.0461 17.4996 21.0461 17.1026C21.0461 16.1254 20.2609 15.3333 19.2923 15.3333C18.3237 15.3333 17.5384 16.1254 17.5384 17.1026C17.5384 17.4997 17.6681 17.8662 17.8871 18.1614C17.3203 18.5882 16.9539 19.2667 16.9539 20.0308V22.1026C16.9539 22.2725 17.0916 22.4103 17.2615 22.4103H21.3231C21.493 22.4103 21.6308 22.2725 21.6308 22.1026V20.0308C21.6308 19.2667 21.2643 18.5881 20.6975 18.1614Z"/>
</mask>
<path fill-rule="evenodd" clip-rule="evenodd" d="M20.6975 18.1614C20.9165 17.8662 21.0461 17.4996 21.0461 17.1026C21.0461 16.1254 20.2609 15.3333 19.2923 15.3333C18.3237 15.3333 17.5384 16.1254 17.5384 17.1026C17.5384 17.4997 17.6681 17.8662 17.8871 18.1614C17.3203 18.5882 16.9539 19.2667 16.9539 20.0308V22.1026C16.9539 22.2725 17.0916 22.4103 17.2615 22.4103H21.3231C21.493 22.4103 21.6308 22.2725 21.6308 22.1026V20.0308C21.6308 19.2667 21.2643 18.5881 20.6975 18.1614Z" fill="#499FB9"/>
<path d="M20.6975 18.1614L20.2959 17.8636L20.0002 18.2623L20.3968 18.5609L20.6975 18.1614ZM17.8871 18.1614L18.1879 18.5609L18.5844 18.2623L18.2887 17.8636L17.8871 18.1614ZM20.5461 17.1026C20.5461 17.3891 20.4529 17.6518 20.2959 17.8636L21.0991 18.4593C21.38 18.0805 21.5461 17.6102 21.5461 17.1026H20.5461ZM19.2923 15.8333C19.9807 15.8333 20.5461 16.3975 20.5461 17.1026H21.5461C21.5461 15.8534 20.5412 14.8333 19.2923 14.8333V15.8333ZM18.0384 17.1026C18.0384 16.3975 18.6039 15.8333 19.2923 15.8333V14.8333C18.0434 14.8333 17.0384 15.8534 17.0384 17.1026H18.0384ZM18.2887 17.8636C18.1317 17.6518 18.0384 17.3891 18.0384 17.1026H17.0384C17.0384 17.6102 17.2046 18.0806 17.4855 18.4593L18.2887 17.8636ZM17.4539 20.0308C17.4539 19.4304 17.7411 18.8972 18.1879 18.5609L17.5864 17.762C16.8995 18.2791 16.4539 19.103 16.4539 20.0308H17.4539ZM17.4539 22.1026V20.0308H16.4539V22.1026H17.4539ZM17.2615 21.9103C17.3678 21.9103 17.4539 21.9964 17.4539 22.1026H16.4539C16.4539 22.5486 16.8155 22.9103 17.2615 22.9103V21.9103ZM21.3231 21.9103H17.2615V22.9103H21.3231V21.9103ZM21.1308 22.1026C21.1308 21.9964 21.2169 21.9103 21.3231 21.9103V22.9103C21.7692 22.9103 22.1308 22.5486 22.1308 22.1026H21.1308ZM21.1308 20.0308V22.1026H22.1308V20.0308H21.1308ZM20.3968 18.5609C20.8435 18.8972 21.1308 19.4304 21.1308 20.0308H22.1308C22.1308 19.103 21.6851 18.2791 20.9982 17.762L20.3968 18.5609Z" fill="white" mask="url(#path-6-outside-2)"/>
<path d="M17.4038 5.01282C17.4038 7.37111 15.5039 9.27564 13.1692 9.27564C10.8345 9.27564 8.93457 7.37111 8.93457 5.01282C8.93457 2.65453 10.8345 0.75 13.1692 0.75C15.5039 0.75 17.4038 2.65453 17.4038 5.01282Z" stroke="#499FB9" stroke-width="1.5"/>
<path d="M23.25 17.9872C23.25 20.3455 21.3501 22.25 19.0154 22.25C16.6806 22.25 14.7808 20.3455 14.7808 17.9872C14.7808 15.6289 16.6806 13.7244 19.0154 13.7244C21.3501 13.7244 23.25 15.6289 23.25 17.9872Z" stroke="#499FB9" stroke-width="1.5"/>
<path d="M9.21924 14.4487C9.21924 16.807 7.31935 18.7115 4.98462 18.7115C2.64989 18.7115 0.75 16.807 0.75 14.4487C0.75 12.0904 2.64989 10.1859 4.98462 10.1859C7.31935 10.1859 9.21924 12.0904 9.21924 14.4487Z" stroke="#499FB9" stroke-width="1.5"/>
</svg>
