<svg width="24" height="24" viewBox="0 0 24 24" fill="none" xmlns="http://www.w3.org/2000/svg">
<g clip-path="url(#clip0)">
<ellipse cx="11.5" cy="7.0119" rx="5.02941" ry="5.99603" fill="#499FB9"/>
<path d="M2 21.5C2 16.2533 6.2533 12 11.5 12V12C16.7467 12 21 16.2533 21 21.5V23.2174C21 23.6496 20.6496 24 20.2174 24H2.78261C2.35039 24 2 23.6496 2 23.2174V21.5Z" fill="#499FB9"/>
<mask id="path-3-outside-1" maskUnits="userSpaceOnUse" x="3.23523" y="-0.963928" width="16" height="13" fill="black">
<rect fill="white" x="3.23523" y="-0.963928" width="16" height="13"/>
<path fill-rule="evenodd" clip-rule="evenodd" d="M5.23523 5.85929H5.23894C5.46881 4.14859 6.16175 2.79873 7.13037 1.82831C8.32471 0.631749 9.91473 0.0360718 11.4999 0.0360718C13.085 0.0360718 14.675 0.63175 15.8694 1.82831C16.838 2.79873 17.5309 4.14859 17.7608 5.85929H17.7646C18.3169 5.85929 18.7646 6.30701 18.7646 6.85929V8.04941C18.7646 8.6017 18.3169 9.04941 17.7646 9.04941H17.1376C16.7751 9.49474 16.2882 9.91259 15.7643 10.25C15.0135 10.7335 14.1688 11.0634 13.4812 11.0634V10.8634C14.1145 10.8634 14.9208 10.5553 15.656 10.0819C16.1276 9.77814 16.5624 9.41116 16.8978 9.02396C16.4539 8.92184 16.1229 8.52428 16.1229 8.04941V6.85929C16.1229 6.36421 16.4827 5.95316 16.9551 5.87332C16.7345 4.36552 16.1196 3.21139 15.3032 2.39347C14.2686 1.35694 12.8867 0.836072 11.4999 0.836072C10.1131 0.836072 8.73119 1.35694 7.69658 2.39347C6.88018 3.21138 6.26525 4.36551 6.0447 5.8733C6.51711 5.9531 6.87694 6.36417 6.87694 6.85929V8.04941C6.87694 8.6017 6.42923 9.04941 5.87694 9.04941H5.23523C4.68294 9.04941 4.23523 8.6017 4.23523 8.04941V6.85929C4.23523 6.30701 4.68294 5.85929 5.23523 5.85929ZM10.8395 10.8254C10.8395 10.5493 11.0633 10.3254 11.3395 10.3254H12.9812C13.2573 10.3254 13.4812 10.5493 13.4812 10.8254V11.1015C13.4812 11.3776 13.2573 11.6015 12.9812 11.6015H11.3395C11.0633 11.6015 10.8395 11.3776 10.8395 11.1015V10.8254Z"/>
</mask>
<path fill-rule="evenodd" clip-rule="evenodd" d="M5.23523 5.85929H5.23894C5.46881 4.14859 6.16175 2.79873 7.13037 1.82831C8.32471 0.631749 9.91473 0.0360718 11.4999 0.0360718C13.085 0.0360718 14.675 0.63175 15.8694 1.82831C16.838 2.79873 17.5309 4.14859 17.7608 5.85929H17.7646C18.3169 5.85929 18.7646 6.30701 18.7646 6.85929V8.04941C18.7646 8.6017 18.3169 9.04941 17.7646 9.04941H17.1376C16.7751 9.49474 16.2882 9.91259 15.7643 10.25C15.0135 10.7335 14.1688 11.0634 13.4812 11.0634V10.8634C14.1145 10.8634 14.9208 10.5553 15.656 10.0819C16.1276 9.77814 16.5624 9.41116 16.8978 9.02396C16.4539 8.92184 16.1229 8.52428 16.1229 8.04941V6.85929C16.1229 6.36421 16.4827 5.95316 16.9551 5.87332C16.7345 4.36552 16.1196 3.21139 15.3032 2.39347C14.2686 1.35694 12.8867 0.836072 11.4999 0.836072C10.1131 0.836072 8.73119 1.35694 7.69658 2.39347C6.88018 3.21138 6.26525 4.36551 6.0447 5.8733C6.51711 5.9531 6.87694 6.36417 6.87694 6.85929V8.04941C6.87694 8.6017 6.42923 9.04941 5.87694 9.04941H5.23523C4.68294 9.04941 4.23523 8.6017 4.23523 8.04941V6.85929C4.23523 6.30701 4.68294 5.85929 5.23523 5.85929ZM10.8395 10.8254C10.8395 10.5493 11.0633 10.3254 11.3395 10.3254H12.9812C13.2573 10.3254 13.4812 10.5493 13.4812 10.8254V11.1015C13.4812 11.3776 13.2573 11.6015 12.9812 11.6015H11.3395C11.0633 11.6015 10.8395 11.3776 10.8395 11.1015V10.8254Z" fill="#499FB9"/>
<path d="M5.23894 5.85929V6.15929H5.50132L5.53626 5.89924L5.23894 5.85929ZM7.13037 1.82831L7.3427 2.04024L7.3427 2.04024L7.13037 1.82831ZM15.8694 1.82831L16.0817 1.61637L16.0817 1.61637L15.8694 1.82831ZM17.7608 5.85929L17.4635 5.89924L17.4984 6.15929H17.7608V5.85929ZM17.1376 9.04941V8.74941H16.995L16.9049 8.86003L17.1376 9.04941ZM15.7643 10.25L15.9267 10.5022L15.9267 10.5022L15.7643 10.25ZM13.4812 11.0634H13.1812V11.3634L13.4812 11.3634L13.4812 11.0634ZM13.4812 10.8634L13.4812 10.5634L13.1812 10.5634V10.8634H13.4812ZM15.656 10.0819L15.4936 9.82963L15.4936 9.82963L15.656 10.0819ZM16.8978 9.02396L17.1245 9.22039L17.4511 8.84342L16.9651 8.7316L16.8978 9.02396ZM16.9551 5.87332L17.0051 6.16913L17.2944 6.12023L17.2519 5.8299L16.9551 5.87332ZM15.3032 2.39347L15.0908 2.6054L15.0908 2.6054L15.3032 2.39347ZM11.4999 0.836072L11.4999 1.13607L11.4999 0.836072ZM7.69658 2.39347L7.48425 2.18153L7.48425 2.18153L7.69658 2.39347ZM6.0447 5.8733L5.74786 5.82988L5.70538 6.12024L5.99473 6.16911L6.0447 5.8733ZM5.23894 5.55929H5.23523V6.15929H5.23894V5.55929ZM6.91804 1.61637C5.89972 2.63659 5.17958 4.04834 4.94161 5.81934L5.53626 5.89924C5.75803 4.24883 6.42377 2.96088 7.3427 2.04024L6.91804 1.61637ZM11.4999 -0.263928C9.84037 -0.263928 8.17229 0.359789 6.91804 1.61637L7.3427 2.04024C8.47712 0.903709 9.9891 0.336072 11.4999 0.336072V-0.263928ZM16.0817 1.61637C14.8275 0.35979 13.1594 -0.263928 11.4999 -0.263928V0.336072C13.0107 0.336072 14.5226 0.903709 15.657 2.04024L16.0817 1.61637ZM18.0581 5.81934C17.8202 4.04834 17.1 2.63659 16.0817 1.61637L15.657 2.04024C16.576 2.96088 17.2417 4.24883 17.4635 5.89924L18.0581 5.81934ZM17.7646 5.55929H17.7608V6.15929H17.7646V5.55929ZM19.0646 6.85929C19.0646 6.14132 18.4826 5.55929 17.7646 5.55929V6.15929C18.1512 6.15929 18.4646 6.47269 18.4646 6.85929H19.0646ZM19.0646 8.04941V6.85929H18.4646V8.04941H19.0646ZM17.7646 9.34941C18.4826 9.34941 19.0646 8.76738 19.0646 8.04941H18.4646C18.4646 8.43601 18.1512 8.74941 17.7646 8.74941V9.34941ZM17.1376 9.34941H17.7646V8.74941H17.1376V9.34941ZM15.9267 10.5022C16.4722 10.1509 16.9844 9.71281 17.3703 9.23879L16.9049 8.86003C16.5658 9.27667 16.1041 9.67431 15.6018 9.99778L15.9267 10.5022ZM13.4812 11.3634C14.2503 11.3634 15.1525 11.0008 15.9267 10.5022L15.6018 9.99778C14.8745 10.4662 14.0873 10.7634 13.4812 10.7634L13.4812 11.3634ZM13.1812 10.8634V11.0634H13.7812V10.8634H13.1812ZM15.4936 9.82963C14.7818 10.288 14.033 10.5634 13.4812 10.5634L13.4812 11.1634C14.1959 11.1634 15.0598 10.8226 15.8184 10.3341L15.4936 9.82963ZM16.671 8.82754C16.3569 9.19018 15.9447 9.53906 15.4936 9.82963L15.8184 10.3341C16.3104 10.0172 16.7679 9.63214 17.1245 9.22039L16.671 8.82754ZM15.8229 8.04941C15.8229 8.66713 16.2535 9.18356 16.8305 9.31633L16.9651 8.7316C16.6544 8.66012 16.4229 8.38143 16.4229 8.04941H15.8229ZM15.8229 6.85929V8.04941H16.4229V6.85929H15.8229ZM16.9051 5.57752C16.2908 5.68135 15.8229 6.21538 15.8229 6.85929H16.4229C16.4229 6.51304 16.6746 6.22498 17.0051 6.16913L16.9051 5.57752ZM15.0908 2.6054C15.8588 3.37478 16.4464 4.46854 16.6582 5.91674L17.2519 5.8299C17.0226 4.2625 16.3803 3.04799 15.5155 2.18153L15.0908 2.6054ZM11.4999 1.13607C12.8123 1.13607 14.1161 1.62887 15.0908 2.6054L15.5155 2.18153C14.421 1.08501 12.9611 0.536072 11.4999 0.536072L11.4999 1.13607ZM7.90891 2.6054C8.88363 1.62887 10.1875 1.13607 11.4999 1.13607L11.4999 0.536072C10.0387 0.536072 8.57874 1.08501 7.48425 2.18153L7.90891 2.6054ZM6.34154 5.91672C6.55337 4.46853 7.14096 3.37478 7.90891 2.6054L7.48425 2.18153C6.6194 3.04799 5.97713 4.26249 5.74786 5.82988L6.34154 5.91672ZM7.17694 6.85929C7.17694 6.21534 6.70903 5.68126 6.09466 5.57749L5.99473 6.16911C6.3252 6.22493 6.57694 6.51301 6.57694 6.85929H7.17694ZM7.17694 8.04941V6.85929H6.57694V8.04941H7.17694ZM5.87694 9.34941C6.59491 9.34941 7.17694 8.76738 7.17694 8.04941H6.57694C6.57694 8.43601 6.26354 8.74941 5.87694 8.74941V9.34941ZM5.23523 9.34941H5.87694V8.74941H5.23523V9.34941ZM3.93523 8.04941C3.93523 8.76738 4.51726 9.34941 5.23523 9.34941V8.74941C4.84863 8.74941 4.53523 8.43601 4.53523 8.04941H3.93523ZM3.93523 6.85929V8.04941H4.53523V6.85929H3.93523ZM5.23523 5.55929C4.51726 5.55929 3.93523 6.14132 3.93523 6.85929H4.53523C4.53523 6.47269 4.84863 6.15929 5.23523 6.15929V5.55929ZM11.3395 10.0254C10.8976 10.0254 10.5395 10.3836 10.5395 10.8254H11.1395C11.1395 10.715 11.229 10.6254 11.3395 10.6254V10.0254ZM12.9812 10.0254H11.3395V10.6254H12.9812V10.0254ZM13.7812 10.8254C13.7812 10.3836 13.423 10.0254 12.9812 10.0254V10.6254C13.0916 10.6254 13.1812 10.715 13.1812 10.8254H13.7812ZM13.7812 11.1015V10.8254H13.1812V11.1015H13.7812ZM12.9812 11.9015C13.423 11.9015 13.7812 11.5433 13.7812 11.1015H13.1812C13.1812 11.2119 13.0916 11.3015 12.9812 11.3015V11.9015ZM11.3395 11.9015H12.9812V11.3015H11.3395V11.9015ZM10.5395 11.1015C10.5395 11.5433 10.8976 11.9015 11.3395 11.9015V11.3015C11.229 11.3015 11.1395 11.2119 11.1395 11.1015H10.5395ZM10.5395 10.8254V11.1015H11.1395V10.8254H10.5395Z" fill="white" mask="url(#path-3-outside-1)"/>
<path d="M7.02942 13.0079L8.14707 12.4628L11.5 19.004L7.58824 15.1883L7.02942 13.0079Z" fill="white"/>
<path d="M15.9706 13.0079L14.8529 12.4628L11.5 19.004L15.4118 15.1883L15.9706 13.0079Z" fill="white"/>
</g>
<defs>
<clipPath id="clip0">
<rect width="24" height="24" fill="white"/>
</clipPath>
</defs>
</svg>
