<svg width="24" height="24" viewBox="0 0 24 24" fill="none" xmlns="http://www.w3.org/2000/svg">
<g clip-path="url(#clip0)">
<rect x="1" y="5" width="19" height="1.5" fill="#499FB9"/>
<circle cx="3.75" cy="3.25" r="0.75" fill="#499FB9"/>
<circle cx="6.75" cy="3.25" r="0.75" fill="#499FB9"/>
<circle cx="9.75" cy="3.25" r="0.75" fill="#499FB9"/>
<mask id="path-5-inside-1" fill="white">
<rect width="21" height="18" rx="1"/>
</mask>
<rect width="21" height="18" rx="1" stroke="#499FB9" stroke-width="3" mask="url(#path-5-inside-1)"/>
<mask id="path-6-outside-2" maskUnits="userSpaceOnUse" x="15" y="9" width="10" height="14" fill="black">
<rect fill="white" x="15" y="9" width="10" height="14"/>
<path fill-rule="evenodd" clip-rule="evenodd" d="M22.4003 14.7999C22.7769 14.2985 23 13.6753 23 13C23 11.3431 21.6569 10 20 10C18.3431 10 17 11.3431 17 13C17 13.6753 17.2231 14.2985 17.5997 14.7999C16.6283 15.5297 16 16.6915 16 18V21.4783C16 21.7664 16.2336 22 16.5217 22H23.4783C23.7664 22 24 21.7664 24 21.4783V18C24 16.6915 23.3717 15.5297 22.4003 14.7999Z"/>
</mask>
<path fill-rule="evenodd" clip-rule="evenodd" d="M22.4003 14.7999C22.7769 14.2985 23 13.6753 23 13C23 11.3431 21.6569 10 20 10C18.3431 10 17 11.3431 17 13C17 13.6753 17.2231 14.2985 17.5997 14.7999C16.6283 15.5297 16 16.6915 16 18V21.4783C16 21.7664 16.2336 22 16.5217 22H23.4783C23.7664 22 24 21.7664 24 21.4783V18C24 16.6915 23.3717 15.5297 22.4003 14.7999Z" fill="#499FB9"/>
<path d="M22.4003 14.7999L22.0005 14.4996L21.7002 14.8994L22.1 15.1997L22.4003 14.7999ZM17.5997 14.7999L17.9 15.1997L18.2998 14.8994L17.9995 14.4996L17.5997 14.7999ZM22.5 13C22.5 13.5633 22.3143 14.0819 22.0005 14.4996L22.8001 15.1002C23.2394 14.5152 23.5 13.7873 23.5 13H22.5ZM20 10.5C21.3807 10.5 22.5 11.6193 22.5 13H23.5C23.5 11.067 21.933 9.5 20 9.5V10.5ZM17.5 13C17.5 11.6193 18.6193 10.5 20 10.5V9.5C18.067 9.5 16.5 11.067 16.5 13H17.5ZM17.9995 14.4996C17.6857 14.0819 17.5 13.5633 17.5 13H16.5C16.5 13.7873 16.7606 14.5152 17.1999 15.1002L17.9995 14.4996ZM16.5 18C16.5 16.8554 17.0489 15.8391 17.9 15.1997L17.2994 14.4002C16.2077 15.2203 15.5 16.5276 15.5 18H16.5ZM16.5 21.4783V18H15.5V21.4783H16.5ZM16.5217 21.5C16.5097 21.5 16.5 21.4903 16.5 21.4783H15.5C15.5 22.0426 15.9574 22.5 16.5217 22.5V21.5ZM23.4783 21.5H16.5217V22.5H23.4783V21.5ZM23.5 21.4783C23.5 21.4903 23.4903 21.5 23.4783 21.5V22.5C24.0426 22.5 24.5 22.0426 24.5 21.4783H23.5ZM23.5 18V21.4783H24.5V18H23.5ZM22.1 15.1997C22.9511 15.8391 23.5 16.8554 23.5 18H24.5C24.5 16.5276 23.7923 15.2203 22.7006 14.4002L22.1 15.1997Z" fill="white" mask="url(#path-6-outside-2)"/>
<rect x="8" y="8.5" width="8" height="1.5" rx="0.75" fill="#499FB9"/>
<path fill-rule="evenodd" clip-rule="evenodd" d="M6.15033 7.88388L4.91289 9.12132L4.38256 8.59099C4.28493 8.49336 4.12664 8.49336 4.029 8.59099L3.67545 8.94454C3.57782 9.04217 3.57782 9.20047 3.67545 9.2981L4.38256 10.0052L4.73611 10.3588C4.83374 10.4564 4.99203 10.4564 5.08967 10.3588L5.44322 10.0052L6.85743 8.59099C6.95506 8.49336 6.95506 8.33507 6.85743 8.23744L6.50388 7.88388C6.40625 7.78625 6.24796 7.78625 6.15033 7.88388Z" fill="#499FB9"/>
<rect x="8" y="12.5" width="7" height="1.5" rx="0.75" fill="#499FB9"/>
<path fill-rule="evenodd" clip-rule="evenodd" d="M3.57322 13.841C3.47559 13.9386 3.47559 14.0969 3.57322 14.1945L3.92678 14.5481C4.02441 14.6457 4.1827 14.6457 4.28033 14.5481L4.81067 14.0178L5.34101 14.5481C5.43864 14.6457 5.59693 14.6457 5.69456 14.5481L6.04811 14.1945C6.14575 14.0969 6.14575 13.9386 6.04811 13.841L5.51778 13.3107L6.0481 12.7803C6.14573 12.6827 6.14573 12.5244 6.0481 12.4268L5.69454 12.0732C5.59691 11.9756 5.43862 11.9756 5.34099 12.0732L4.81067 12.6035L4.28035 12.0732C4.18272 11.9756 4.02443 11.9756 3.92679 12.0732L3.57324 12.4268C3.47561 12.5244 3.47561 12.6827 3.57324 12.7803L4.10356 13.3107L3.57322 13.841Z" fill="#499FB9"/>
</g>
<defs>
<clipPath id="clip0">
<rect width="24" height="24" fill="white"/>
</clipPath>
</defs>
</svg>
