<svg id="Layer_1" data-name="Layer 1" xmlns="http://www.w3.org/2000/svg" xmlns:xlink="http://www.w3.org/1999/xlink" viewBox="0 0 765.39 784.22"><defs><style>.cls-1{fill:none;}.cls-2{clip-path:url(#clip-path);}.cls-3{fill:#ebf1f9;}.cls-4{fill:#f7b357;}.cls-5{fill:#9861a8;}.cls-11,.cls-12,.cls-6,.cls-7,.cls-8{isolation:isolate;}.cls-7,.cls-8{font-size:19.89px;}.cls-11,.cls-12,.cls-7,.cls-8{fill:#fff;font-family:ArialMT, Arial;}.cls-7{letter-spacing:-0.04em;}.cls-9{opacity:0.5;}.cls-10{fill:#979797;stroke:#979797;}.cls-11,.cls-12{font-size:20px;}.cls-11{letter-spacing:-0.01em;}.cls-13{fill:#659c25;}.cls-14{fill:#5e5e5e;}.cls-15{fill:#f8e9d7;}.cls-16{fill:#8b572a;}.cls-17{fill:#292828;}.cls-18{fill:#b185bc;}.cls-19{fill:#936b5e;}</style><clipPath id="clip-path" transform="translate(-15.84 -5.5)"><rect class="cls-1" x="92.31" y="5.5" width="688.92" height="784.22"/></clipPath></defs><title>ladder_image</title><g class="cls-2"><path class="cls-3" d="M751.94,188.42C864,483.42,631.76,684.36,436.52,738.5c-454.93,126.16-382.07-5-417.32-132.07S235.36,372.21,328.92,267.37C433.46,101.9,673.06-19.18,751.94,188.42Z" transform="translate(-15.84 -5.5)"/><g id="Mask-4-2"><path id="path-1-2" class="cls-4" d="M379.16,253.13l10.59,60.1a2,2,0,0,1-1.63,2.31l-60.06,10.59a2,2,0,0,1-2.32-1.62h0l-1-5.78c-1.36-7.76,10.67-1.88,8.13-16.28-1.6-9.07-2.89-16.42-23.41-12.8s-19.21,11-17.62,20c2.54,14.4,11.84,4.77,13.21,12.52l1,5.78h0a2,2,0,0,1-1.62,2.32h0l-60.07,10.59a2,2,0,0,1-2.31-1.62h0l-10.59-60.06a2,2,0,0,1,1.62-2.32h0l5.78-1c7.76-1.37,1.88,10.62,15.21,8.27.36-.06.72-.08,1.07-.14,9.07-1.6,16.42-2.9,12.8-23.41s-11-19.22-20-17.62c-14.4,2.54-4.76,11.84-12.52,13.21l-5.78,1h0a2,2,0,0,1-2.32-1.62h0l-10.59-60.06a2,2,0,0,1,1.62-2.32h0l60.06-10.59a2,2,0,0,0,1.63-2.31h0l-1-5.78c-1.37-7.75-10.67,1.88-13.21-12.52-1.6-9.06-2.89-16.41,17.62-20s21.81,3.73,23.41,12.8c2.54,14.4-9.5,8.52-8.13,16.28l1,5.78h0a2,2,0,0,0,2.32,1.62h0l60.06-10.59a2,2,0,0,1,2.32,1.62h0L375,229.53a2,2,0,0,0,2.32,1.62h0l5.78-1c7.76-1.36-1.88-10.66,12.52-13.2,9.06-1.6,16.41-2.9,20,17.62s-3.73,21.83-12.8,23.4c-14.4,2.5-8.52-9.49-16.28-8.12l-5.78,1h0A2,2,0,0,0,379.16,253.13Z" transform="translate(-15.84 -5.5)"/></g><g id="Mask-5"><path id="path-3-2" class="cls-5" d="M677.22,287.88l-17.83,58.33a2,2,0,0,1-2.5,1.32L598.57,329.7a2,2,0,0,1-1.33-2.49h0l1.72-5.61c2.3-7.53,10.35,3.16,14.63-10.82,2.69-8.8,4.87-15.94-15-22s-22.1,1.05-24.79,9.85c-4.28,14,8.38,9.62,6.08,17.15l-1.72,5.62h0a2,2,0,0,1-2.49,1.33l-58.33-17.84a2,2,0,0,1-1.33-2.49h0l17.84-58.33a2,2,0,0,1,2.49-1.33l5.62,1.72c7.53,2.3-3.15,10.32,9.8,14.28.34.1.67.25,1,.35,8.8,2.7,15.93,4.88,22-15s-1-22.11-9.84-24.8c-14-4.27-9.62,8.39-17.15,6.09l-5.62-1.72h0a2,2,0,0,1-1.33-2.49h0l17.83-58.32a2,2,0,0,1,2.5-1.33h0l58.33,17.83A2,2,0,0,0,622,178l1.72-5.61c2.3-7.53-10.36-3.17-6.08-17.16,2.69-8.8,4.87-15.93,24.79-9.84s17.74,13.22,15.05,22c-4.28,14-12.33,3.28-14.64,10.81l-1.71,5.62h0a2,2,0,0,0,1.32,2.5l58.29,17.81a2,2,0,0,1,1.33,2.5h0l-17.8,58.3a2,2,0,0,0,1.32,2.5l5.62,1.72c7.53,2.3,3.17-10.36,17.15-6.09,8.8,2.69,15.94,4.88,9.85,24.8s-13.23,17.76-22,15c-14-4.31-3.28-12.33-10.81-14.63l-5.66-1.68h0A2,2,0,0,0,677.22,287.88Z" transform="translate(-15.84 -5.5)"/></g><g id="Fun"><g class="cls-6"><text class="cls-7" transform="translate(260.04 207.38) rotate(-9.84)">F</text><text class="cls-8" transform="translate(270.14 205.63) rotate(-9.84)">un</text></g></g><g id="Group"><g class="cls-9"><rect id="Rectangle" class="cls-10" x="547.43" y="413.13" width="6" height="305" rx="2" ry="2"/><rect id="Rectangle-Copy" class="cls-10" x="607.43" y="413.13" width="6" height="305" rx="2" ry="2"/><rect id="Rectangle-2" class="cls-10" x="543.43" y="439.13" width="74" height="7" rx="2" ry="2"/><rect id="Rectangle-2-Copy" class="cls-10" x="543.43" y="463.13" width="74" height="7" rx="2" ry="2"/><rect id="Rectangle-2-Copy-2" class="cls-10" x="543.43" y="489.13" width="74" height="7" rx="2" ry="2"/><rect id="Rectangle-2-Copy-3" class="cls-10" x="543.43" y="515.13" width="74" height="7" rx="2" ry="2"/><rect id="Rectangle-2-Copy-4" class="cls-10" x="543.43" y="539.13" width="74" height="7" rx="2" ry="2"/><rect id="Rectangle-2-Copy-5" class="cls-10" x="543.43" y="565.13" width="74" height="7" rx="2" ry="2"/><rect id="Rectangle-2-Copy-6" class="cls-10" x="543.43" y="591.13" width="74" height="7" rx="2" ry="2"/><rect id="Rectangle-2-Copy-7" class="cls-10" x="543.43" y="616.13" width="74" height="7" rx="2" ry="2"/><rect id="Rectangle-2-Copy-8" class="cls-10" x="543.43" y="641.13" width="74" height="7" rx="2" ry="2"/><rect id="Rectangle-2-Copy-9" class="cls-10" x="543.43" y="666.13" width="74" height="7" rx="2" ry="2"/></g></g><g id="Challenging"><g class="cls-6"><text class="cls-11" transform="translate(552.52 194.12) rotate(17)">C</text><text class="cls-12" transform="translate(566.83 198.49) rotate(17)">hallenging</text></g></g><g id="Group-2"><path id="Rectangle-13" class="cls-13" d="M558,317.71c2.21-6.65,10.89-.44,10.89,3.46s1,29.06,3,40q2,11,17,34.33-9.44,27.44-9.44,20.67c0-6.76-21.44-43.61-21.44-51.78S555.71,324.35,558,317.71Z" transform="translate(-15.84 -5.5)"/><path id="Rectangle-13-Copy-2" class="cls-13" d="M657,344.52c0-6.62,5.48-15.78,7.72-11.94s-3.53,40.21-5.56,48.59q-1.77,7.32-30.88,26.79h0a9.21,9.21,0,0,1-12.78-2.52v0a8.3,8.3,0,0,1-.7-1.23h0a10.2,10.2,0,0,1,4.95-13.55h0l.3-.13q25.32-10.77,27.37-16C649.85,368.37,657,351.13,657,344.52Z" transform="translate(-15.84 -5.5)"/><path id="Rectangle-8" class="cls-14" d="M596.87,428.66l19.42-1.53a2,2,0,0,1,2.13,1.64q4.14,22.65,5.17,32.63c1.1,10.37-5.9,28.36-7.54,53.91s-1.28,49.34-2,52.62-7.28,5.26-10.69-.25c-4.52-7.31-1.44-43.21-1.44-52.37,0-16.47-2-36.16-2-41.33s-6.21,8.09-11.5,25.15c-1.71,5.59-1.71,26.35-1.71,42.58,0,3.25-8.41,6.57-11.07,0q-2.64-6.57-5.93-45.07a162.79,162.79,0,0,1,11.19-41.51,32.92,32.92,0,0,0,3-12.42h0A14,14,0,0,1,596.87,428.66Z" transform="translate(-15.84 -5.5)"/><path id="Combined-Shape" class="cls-15" d="M585.71,450.13c-2.76,0-5-3.58-5-8s2.24-8,5-8,5,3.58,5,8S588.47,450.13,585.71,450.13Zm1.43-2.91c2,0,3.57-2.28,3.57-5.09s-1.6-5.09-3.57-5.09-3.57,2.28-3.57,5.09S585.17,447.22,587.14,447.22Z" transform="translate(-15.84 -5.5)"/><path id="Rectangle-9" class="cls-13" d="M576.28,392.88l50.81-5a2,2,0,0,1,2.19,1.79h0a.67.67,0,0,1,0,.2V443a2,2,0,0,1-1.89,2l-45,2.36a2,2,0,0,1-2.1-1.77l-5.8-50.41a2,2,0,0,1,1.76-2.21Z" transform="translate(-15.84 -5.5)"/><rect id="Rectangle-11" class="cls-15" x="587.71" y="385.13" width="4" height="32" transform="translate(-81.54 114.39) rotate(-11)"/><polygon id="Rectangle-11-Copy" class="cls-15" points="593.32 384.19 596.95 383.84 602.53 414.05 598.6 414.74 593.32 384.19"/><path id="Combined-Shape-2" class="cls-16" d="M581.45,372c-1.94-7.32,1.94-16.76,12.62-18.84s16.54,4.09,18,13.4c.87,5.56.22,11.32.33,17.27.13,7.58-2.47,20.22-2.44,20.36l-21.49-4c0-.14-.74-8.34-1.75-14.64C585.92,380.6,583.39,379.33,581.45,372Z" transform="translate(-15.84 -5.5)"/><path id="Rectangle-10" class="cls-15" d="M590.61,409.13h26.1a5,5,0,0,1,5,4.32q4.38,31.65-.62,38.88c-5.33,7.73-29.71,7.73-34.8,0q-4.77-7.23-.59-38.85h0A5,5,0,0,1,590.61,409.13Z" transform="translate(-15.84 -5.5)"/><path id="Combined-Shape-3" class="cls-15" d="M603.21,418.13a7.5,7.5,0,1,1,7.5-7.5,7.5,7.5,0,0,1-7.5,7.5Zm0-3a4.5,4.5,0,1,0-4.5-4.5,4.49,4.49,0,0,0,4.5,4.5Z" transform="translate(-15.84 -5.5)"/></g><g id="Group-6-Copy-2"><path id="Rectangle-10-2" class="cls-17" d="M145.14,109.07l25.33-6.32a5,5,0,0,1,5.85,3q11.88,29.64,8.8,37.88c-3.3,8.8-27,14.69-33.75,8.42q-6.39-5.88-10-37.56h0A5,5,0,0,1,145.14,109.07Z" transform="translate(-15.84 -5.5)"/><path id="Rectangle-13-2" class="cls-18" d="M149.51,105.51c-1.48-1.88-7.26-11.82-9.8-9.71-1.33,1.1-12.32,32.45-16,38C121.09,137.58,99,99.21,95.46,97.36c-5.84-3.06-2.17,15.86,0,18.56,1.68,2.09,8.51,13,16.51,25.73s15.31,11.79,21.12,1.56C144.78,122.55,152.43,109.23,149.51,105.51Z" transform="translate(-15.84 -5.5)"/><path id="Rectangle-13-Copy-2-2" class="cls-18" d="M191.89,98.09c-2.62,4.45-19.16-.92-19.16-5.75s13.57-25.45,16-40.13-.76-40.92,0-42.93C190.09,5.64,199,3.51,199,8.19c0,1.37,2,27.42,2,43.67C201,60.93,193.35,95.6,191.89,98.09Z" transform="translate(-15.84 -5.5)"/><path id="Rectangle-8-Copy" class="cls-14" d="M156.82,137.44l33.38-13.69a2,2,0,0,1,1.41,0q13.47,4.6,22.48,7.07c9.26,2.53,23.42,4.74,31.87,22.39s15.9,47.38,16.8,51.5-1.34,10.69-9.33,5.51c-9.05-5.86-15.27-48.45-32.6-53.61-27-8-28.4.38-29.92,12.11s-1.64,22.44-2.82,29.62-8.67,57.22-11.51,63.23c-2.69,5.68-8.56,2-10.34-.36q-1.16-1.54,3.09-62.87,2-12.19-3.35-41.73T156.82,137.44Z" transform="translate(-15.84 -5.5)"/><path id="Rectangle-9-Copy" class="cls-18" d="M140.42,95l45.75-18.17A2,2,0,0,1,188.76,78h0a.6.6,0,0,1,.06.19l14.08,49.18a2,2,0,0,1-1.27,2.44l-41.12,14.16a2,2,0,0,1-2.5-1.12L139.31,97.64A2,2,0,0,1,140.39,95Z" transform="translate(-15.84 -5.5)"/><path id="Rectangle-19" class="cls-17" d="M144.85,92.87c2.1-1,3.23-1.35,5.05-2.11,1.29-.54,11.92,11.4,12.1,21.74s-1.65,35-2.19,37.55c-.81,3.9-5.18,3.34-5.74.1-.94-5.41,3-26,1.28-37.53C153.87,102.52,143.4,93.57,144.85,92.87Z" transform="translate(-15.84 -5.5)"/><ellipse id="Oval-2" class="cls-19" cx="158.68" cy="78.76" rx="13.12" ry="12.57" transform="translate(-30.18 35.22) rotate(-14)"/><path id="Oval-5" d="M158.74,83.85c-2.36,1.37-4.6-7.21-6.89-4.53-5.32,6.24-3,9.84-5.8,10.45-2.14.47-3-5.15-1-9.28,1.24-2.58-11.18,9.68-11.81,8.6s5.28-10,8.88-12.28c3.34-2.12-12.07,8.94-11.9,7,.27-3.1,13.68-11.27,11.58-11.87-2.57-.73-10,1.33-8.47-.25,1.86-1.89,8.24-3.13,11.72-3.08,2.6,0-5.46-3.16-7.91-4.11-1.26-.49.12-1.3,1.35-1.28,2.75,0,9.86,1.63,11.55,1.45a22.84,22.84,0,0,1,1.17-5.77c1.21-3,3.55-5.8,4.09-4.78.4.75-.74,2.94-1,4.78-.34,2.82.11,5.28,1,4,2.25-3.29,6-10.3,7.49-10.69,2.66-.73-4.08,7.67-4,9.9,0,1.68,15-9.9,16.1-8S160,64.82,162.76,63.44c3.36-1.65,15.33-3.66,16-2.58.75,1.3-20.1,6.65-12.89,5.92,3.14-.32,13.57,0,10,2.11s-8.2,2.06-13.82,4.35C158.09,74.82,160.73,82.71,158.74,83.85Z" transform="translate(-15.84 -5.5)"/></g></g></svg>